name Run_30002_GRF.mot
datacolumns 19
datarows 15
range 1.231 1.245
endheader
time	     ground_force_vx	     ground_force_vy	     ground_force_vz	     ground_force_px	     ground_force_py	     ground_force_pz	   l_ground_force_vx	   l_ground_force_vy	   l_ground_force_vz	   l_ground_force_px	   l_ground_force_py	   l_ground_force_pz	     ground_torque_x	     ground_torque_y	     ground_torque_z	   l_ground_torque_x	   l_ground_torque_y	   l_ground_torque_z	
1.231	          0.00000000	          0.00000000	          0.00000000	          0.00000000	          0.00000000	          0.00000000	          0.00000000	          0.00000000	          0.00000000	          0.00000000	          0.00000000	          0.00000000	          0.00000000	          0.00000000	          0.00000000	          0.00000000	          0.00000000	          0.00000000	
1.232	         -5.47726000	         10.15707700	         -2.12866700	          1.10186600	          0.00000000	         -0.27159100	          0.00000000	          0.00000000	          0.00000000	          0.00000000	          0.00000000	          0.00000000	          0.00000000	         -0.78300600	          0.00000000	          0.00000000	          0.00000000	          0.00000000	
1.233	         -6.17903900	         11.80709800	         -2.45424000	          1.09904900	          0.00000000	         -0.27321100	          0.00000000	          0.00000000	          0.00000000	          0.00000000	          0.00000000	          0.00000000	          0.00000000	         -0.65414800	          0.00000000	          0.00000000	          0.00000000	          0.00000000	
1.234	         -6.97250700	         13.69944000	         -2.80859200	          1.09756100	          0.00000000	         -0.27480200	          0.00000000	          0.00000000	          0.00000000	          0.00000000	          0.00000000	          0.00000000	          0.00000000	         -0.51739300	          0.00000000	          0.00000000	          0.00000000	          0.00000000	
1.235	         -7.86283000	         15.86332500	         -3.19359700	          1.09705700	          0.00000000	         -0.27632100	          0.00000000	          0.00000000	          0.00000000	          0.00000000	          0.00000000	          0.00000000	          0.00000000	         -0.37290500	          0.00000000	          0.00000000	          0.00000000	          0.00000000	
1.236	         -8.85436000	         18.33065600	         -3.61108900	          1.09727000	          0.00000000	         -0.27774000	          0.00000000	          0.00000000	          0.00000000	          0.00000000	          0.00000000	          0.00000000	          0.00000000	         -0.22088200	          0.00000000	          0.00000000	          0.00000000	          0.00000000	
1.237	         -9.95042000	         21.13608200	         -4.06284200	          1.09799100	          0.00000000	         -0.27904200	          0.00000000	          0.00000000	          0.00000000	          0.00000000	          0.00000000	          0.00000000	          0.00000000	         -0.06155500	          0.00000000	          0.00000000	          0.00000000	          0.00000000	
1.238	        -11.15308900	         24.31703400	         -4.55055500	          1.09906100	          0.00000000	         -0.28022200	          0.00000000	          0.00000000	          0.00000000	          0.00000000	          0.00000000	          0.00000000	         -0.00000000	          0.10480900	         -0.00000000	          0.00000000	          0.00000000	          0.00000000	
1.239	        -12.46295900	         27.91371300	         -5.07582200	          1.10035900	          0.00000000	         -0.28127900	          0.00000000	          0.00000000	          0.00000000	          0.00000000	          0.00000000	          0.00000000	         -0.00000000	          0.27790900	         -0.00000000	          0.00000000	          0.00000000	          0.00000000	
1.24	        -13.87891600	         31.96903200	         -5.64011500	          1.10179300	          0.00000000	         -0.28222000	          0.00000000	          0.00000000	          0.00000000	          0.00000000	          0.00000000	          0.00000000	         -0.00000000	          0.45741000	         -0.00000000	          0.00000000	          0.00000000	          0.00000000	
1.241	        -15.39791300	         36.52849200	         -6.24475100	          1.10329400	          0.00000000	         -0.28305200	          0.00000000	          0.00000000	          0.00000000	          0.00000000	          0.00000000	          0.00000000	         -0.00000000	          0.64294400	         -0.00000000	          0.00000000	          0.00000000	          0.00000000	
1.242	        -17.01478000	         41.64001800	         -6.89086600	          1.10481200	          0.00000000	         -0.28378600	          0.00000000	          0.00000000	          0.00000000	          0.00000000	          0.00000000	          0.00000000	         -0.00000000	          0.83410800	         -0.00000000	          0.00000000	          0.00000000	          0.00000000	
1.243	        -18.72205700	         47.35373300	         -7.57937700	          1.10630800	          0.00000000	         -0.28443400	          0.00000000	          0.00000000	          0.00000000	          0.00000000	          0.00000000	          0.00000000	         -0.00000000	          1.03046800	         -0.00000000	          0.00000000	          0.00000000	          0.00000000	
1.244	        -20.50988400	         53.72165700	         -8.31095500	          1.10775400	          0.00000000	         -0.28500800	          0.00000000	          0.00000000	          0.00000000	          0.00000000	          0.00000000	          0.00000000	         -0.00000000	          1.23155600	         -0.00000000	          0.00000000	          0.00000000	          0.00000000	
1.245	        -22.36595200	         60.79734800	         -9.08598100	          1.10912800	          0.00000000	         -0.28552000	          0.00000000	          0.00000000	          0.00000000	          0.00000000	          0.00000000	          0.00000000	         -0.00000000	          1.43687700	         -0.00000000	          0.00000000	          0.00000000	          0.00000000	
